<svg width="31" height="35" viewBox="0 0 31 35" fill="none" xmlns="http://www.w3.org/2000/svg">
<path d="M10.9461 24.1398C9.15421 22.4512 8.10015 20.1293 8.10015 17.4907C8.10015 14.8522 9.15421 12.5303 10.8407 10.8417C12.3164 9.36408 12.3164 7.04218 10.8407 5.5646C9.36503 4.08703 7.04608 4.08703 5.57039 5.5646C2.619 8.6253 0.72168 12.8469 0.72168 17.4907C0.72168 22.1346 2.619 26.3562 5.67579 29.4169C7.15149 30.8945 9.47043 30.8945 10.9461 29.4169C12.3164 27.9393 12.3164 25.6174 10.9461 24.1398Z" fill="#FFD85F"/>
<path d="M24.2272 24.1397C22.5407 25.9339 20.2217 26.9894 17.5866 26.9894C14.9514 26.9894 12.6325 25.9339 10.946 24.2453C9.47026 22.7677 7.15131 22.7677 5.67562 24.2453C4.19992 25.7229 4.19992 28.0448 5.67562 29.5223C8.73241 32.4775 12.9487 34.3772 17.5866 34.3772C22.2245 34.3772 26.4407 32.4775 29.4975 29.4168C30.9732 27.9392 30.9732 25.6173 29.4975 24.1397C28.0218 22.7677 25.7029 22.7677 24.2272 24.1397Z" fill="#ED5C68"/>
<path d="M8.31082 30.4722C10.3483 30.4722 12.0001 28.8184 12.0001 26.7783C12.0001 24.7382 10.3483 23.0844 8.31082 23.0844C6.27331 23.0844 4.62158 24.7382 4.62158 26.7783C4.62158 28.8184 6.27331 30.4722 8.31082 30.4722Z" fill="#D5465F"/>
<path d="M10.946 10.8416C12.6325 9.04742 14.9514 7.992 17.5866 7.992C20.2217 7.992 22.5407 9.04742 24.2272 10.7361C25.7029 12.2136 28.0218 12.2136 29.4975 10.7361C30.9732 9.2585 30.9732 6.93659 29.4975 5.45902C26.4407 2.50387 22.2245 0.604126 17.5866 0.604126C12.9487 0.604126 8.73241 2.50387 5.67562 5.56456C4.19992 7.04213 4.19992 9.36404 5.67562 10.8416C7.15131 12.2136 9.47026 12.2136 10.946 10.8416Z" fill="#3BB4E7"/>
<path d="M8.31082 11.897C10.3483 11.897 12.0001 10.2432 12.0001 8.20309C12.0001 6.16299 10.3483 4.50916 8.31082 4.50916C6.27331 4.50916 4.62158 6.16299 4.62158 8.20309C4.62158 10.2432 6.27331 11.897 8.31082 11.897Z" fill="#308BC5"/>
</svg>
