<svg width="33" height="32" viewBox="0 0 33 32" fill="none" xmlns="http://www.w3.org/2000/svg">
<path d="M16.1798 0.0286865C7.47051 0.0286865 0.344727 7.16524 0.344727 15.8877C0.344727 24.6102 7.47051 31.7467 16.1798 31.7467C24.8891 31.7467 32.0149 24.6102 32.0149 15.8877C32.0149 7.16524 24.8891 0.0286865 16.1798 0.0286865ZM7.3574 24.7234C4.98214 22.3446 3.73796 19.1728 3.73796 16.1143L16.0667 28.3483C12.8997 28.2351 9.73266 27.1023 7.3574 24.7234ZM18.8944 28.0085L4.07728 13.169C5.32146 7.61836 10.2982 3.42705 16.1798 3.42705C20.3648 3.42705 23.9842 5.46606 26.2464 8.52458L24.5498 9.99721C22.6269 7.3918 19.573 5.69262 16.1798 5.69262C11.7686 5.69262 8.03605 8.52458 6.56565 12.4893L19.573 25.5164C22.8532 24.3836 25.3415 21.5516 26.1333 18.1533H20.7041V15.8877H28.6216C28.6216 21.7782 24.4367 26.7624 18.8944 28.0085Z" fill="#663399"/>
</svg>
