<svg width="26" height="26" viewBox="0 0 26 26" fill="none" xmlns="http://www.w3.org/2000/svg">
<g opacity="0.6">
<path opacity="0.6" d="M9.25712 20.1896H1.72096C1.07172 20.1896 0.54541 20.7159 0.54541 21.3651V24.0142C0.54541 24.6635 1.07172 25.1898 1.72096 25.1898H9.25712C9.90636 25.1898 10.4327 24.6635 10.4327 24.0142V21.3651C10.4327 20.7159 9.90636 20.1896 9.25712 20.1896Z" fill="#2E3134"/>
<path opacity="0.6" d="M24.0815 20.1896H16.5515C15.9023 20.1896 15.376 20.7159 15.376 21.3651V24.0142C15.376 24.6635 15.9023 25.1898 16.5515 25.1898H24.0815C24.7308 25.1898 25.2571 24.6635 25.2571 24.0142V21.3651C25.2571 20.7159 24.7308 20.1896 24.0815 20.1896Z" fill="#2E3134"/>
<path opacity="0.6" d="M24.0846 10.1896H1.71364C1.0644 10.1896 0.538086 10.7159 0.538086 11.3651V14.0142C0.538086 14.6635 1.0644 15.1898 1.71364 15.1898H24.0846C24.7339 15.1898 25.2602 14.6635 25.2602 14.0142V11.3651C25.2602 10.7159 24.7339 10.1896 24.0846 10.1896Z" fill="#2E3134"/>
<path opacity="0.6" d="M14.2021 0.189819H1.72096C1.07172 0.189819 0.54541 0.716131 0.54541 1.36537V4.01418C0.54541 4.66342 1.07172 5.18973 1.72096 5.18973H14.2021C14.8513 5.18973 15.3776 4.66342 15.3776 4.01418V1.36537C15.3776 0.716131 14.8513 0.189819 14.2021 0.189819Z" fill="#2E3134"/>
<path opacity="0.6" d="M24.0873 0.189819H21.4949C20.8456 0.189819 20.3193 0.716131 20.3193 1.36537V4.01418C20.3193 4.66342 20.8456 5.18973 21.4949 5.18973H24.0873C24.7365 5.18973 25.2628 4.66342 25.2628 4.01418V1.36537C25.2628 0.716131 24.7365 0.189819 24.0873 0.189819Z" fill="#2E3134"/>
</g>
</svg>
