<svg width="70" height="48" fill="none" xmlns="http://www.w3.org/2000/svg"><path d="M22.2283 41.6465c0 .4947-.1787.8845-.536 1.1693-.3548.2848-.8495.4272-1.4841.4272-.5847 0-1.1019-.1099-1.5516-.3298v-1.0793c.3698.1649.6821.2811.937.3485.2573.0675.4922.1012.7045.1012.2549 0 .4498-.0487.5847-.1462.1374-.0974.2061-.2423.2061-.4347 0-.1074-.03-.2024-.0899-.2848-.06-.085-.1487-.1662-.2661-.2436-.1149-.0775-.3511-.2012-.7083-.3711-.3348-.1574-.5859-.3085-.7533-.4534a1.7047 1.7047 0 01-.4011-.506c-.0999-.1924-.1499-.4173-.1499-.6746 0-.4847.1637-.8657.491-1.1431.3298-.2773.7845-.416 1.3642-.416.2848 0 .5559.0337.8133.1012.2598.0675.5309.1624.8132.2848l-.3748.9033c-.2923-.12-.5346-.2037-.727-.2511a2.3107 2.3107 0 00-.5622-.0713c-.2199 0-.3885.0513-.5059.1537-.1175.1024-.1762.2361-.1762.401 0 .1025.0237.1924.0712.2699.0475.0749.1224.1486.2249.2211.1049.0699.351.1974.7383.3823.5122.2448.8632.4909 1.0531.7383.1899.2448.2849.5459.2849.9032zm4.2032-3.0695c-.4373 0-.7758.1649-1.0157.4948-.2398.3273-.3598.7845-.3598 1.3716 0 1.2218.4585 1.8327 1.3755 1.8327.3848 0 .8507-.0962 1.3979-.2886v.9745c-.4497.1874-.9519.281-1.5066.281-.797 0-1.4067-.2411-1.8289-.7233-.4223-.4847-.6334-1.1793-.6334-2.0837 0-.5697.1037-1.0682.3111-1.4954.2073-.4298.5047-.7583.8919-.9857.3898-.2299.8458-.3448 1.368-.3448.5322 0 1.0669.1287 1.604.386l-.3747.9445a6.2008 6.2008 0 00-.6184-.2549c-.2074-.0724-.411-.1087-.6109-.1087zm4.6117 1.5441h.3748c.3673 0 .6384-.0612.8133-.1836.1749-.1224.2623-.3148.2623-.5772 0-.2598-.0899-.4447-.2698-.5546-.1774-.11-.4535-.1649-.8283-.1649h-.3523v1.4803zm0 .9445v2.1025h-1.1618v-5.4793h1.5966c.7445 0 1.2954.1362 1.6527.4085.3573.2699.536.6809.536 1.2331 0 .3223-.0887.6096-.2661.8619-.1774.2499-.4285.446-.7533.5884.8245 1.2318 1.3617 2.0276 1.6115 2.3874h-1.2892l-1.308-2.1025h-.6184zm9.7612-.6446c0 .9069-.2249 1.604-.6746 2.0912-.4497.4872-1.0943.7308-1.9338.7308-.8396 0-1.4842-.2436-1.9339-.7308-.4497-.4872-.6746-1.1868-.6746-2.0987 0-.912.2249-1.6078.6746-2.0876.4522-.4822 1.0993-.7233 1.9413-.7233.8421 0 1.4854.2424 1.9302.7271.4472.4847.6708 1.1818.6708 2.0913zm-3.9989 0c0 .6121.1162 1.0731.3486 1.3829.2323.3098.5796.4647 1.0419.4647.9269 0 1.3904-.6159 1.3904-1.8476 0-1.2343-.461-1.8514-1.383-1.8514-.4622 0-.8107.1561-1.0456.4684-.2348.3098-.3523.7708-.3523 1.383zm6.0172 2.7471v-5.4793h1.1618v4.5199h2.2224v.9594h-3.3842zm5.2226 0v-5.4793h1.1618v4.5199h2.2225v.9594h-3.3843z" fill="#000469"/><path fill-rule="evenodd" clip-rule="evenodd" d="M35 5.696a.9375.9375 0 01.9375.9374v3.75a.9374.9374 0 11-1.875 0v-3.75A.9376.9376 0 0135 5.696zm7.5 14.9999v-11.25a7.5001 7.5001 0 00-15 0v11.25a7.5001 7.5001 0 0015 0zM35 .0709a9.3748 9.3748 0 00-9.375 9.375v11.25A9.3747 9.3747 0 0035 30.0709a9.3747 9.3747 0 009.375-9.375v-11.25A9.3748 9.3748 0 0035 .071z" fill="#000469"/></svg>