<svg width="51" height="33" viewBox="0 0 51 33" fill="none" xmlns="http://www.w3.org/2000/svg">
<path d="M12.4608 9.26943H21.8914V10.061H13.3255V16.0175H21.3805V16.8091H13.3255V23.3489H21.9896V24.1404H12.4608V9.26943ZM22.7361 9.26943H23.7382L28.1784 15.8092L32.7168 9.26943L38.8897 0.962524L28.7482 16.4966L33.9742 24.1404H32.9328L28.1784 17.184L23.4044 24.1404H22.3826L27.6479 16.4966L22.7361 9.26943ZM34.3476 10.061V9.26943H45.0941V10.061H40.1434V24.14H39.2787V10.061H34.3476ZM0.663086 9.26943H1.74376L16.6441 32.8129L10.4864 24.1404L1.5667 10.3941L1.52743 24.1404H0.663086V9.26943ZM45.0075 23.1099C44.8304 23.1099 44.698 22.9654 44.698 22.7788C44.698 22.5919 44.8304 22.4475 45.0071 22.4475C45.1859 22.4475 45.3162 22.5919 45.3162 22.7788C45.3162 22.9654 45.1862 23.1099 45.0075 23.1099ZM45.8566 22.2384H46.3194C46.3258 22.5031 46.509 22.6808 46.7778 22.6808C47.0784 22.6808 47.2487 22.4899 47.2487 22.1318V19.8646H47.7197V22.1339C47.7197 22.7788 47.3665 23.1502 46.7819 23.1502C46.2334 23.1502 45.8566 22.7899 45.8566 22.2384ZM48.3355 22.2099H48.8024C48.8423 22.5142 49.124 22.7075 49.5299 22.7075C49.9081 22.7075 50.1857 22.5006 50.1857 22.2163C50.1857 21.972 50.0093 21.825 49.6075 21.7251L49.2164 21.6253C48.668 21.4897 48.4174 21.2094 48.4174 20.7381C48.4174 20.1667 48.8589 19.7865 49.5211 19.7865C50.1373 19.7865 50.5876 20.1667 50.6147 20.7068H50.1563C50.1123 20.4114 49.8685 20.2266 49.515 20.2266C49.1426 20.2266 48.8948 20.4157 48.8948 20.7046C48.8948 20.9336 49.0546 21.0649 49.45 21.1626L49.7842 21.2493C50.4065 21.4027 50.6631 21.6695 50.6631 22.1518C50.6631 22.7653 50.2128 23.1502 49.494 23.1502C48.8213 23.1502 48.369 22.7835 48.3355 22.2099Z" fill="black"/>
</svg>
