<svg width="26" height="29" viewBox="0 0 26 29" fill="none" xmlns="http://www.w3.org/2000/svg">
<path d="M13.1849 28.1896C12.8145 28.1896 12.4467 28.0912 12.122 27.9019L8.73887 25.874C8.23357 25.5879 8.48013 25.4867 8.64679 25.4284C9.32053 25.1896 9.45725 25.1357 10.1764 24.7222C10.252 24.6785 10.3509 24.6939 10.4283 24.7402L13.0273 26.3017C13.1212 26.353 13.2544 26.353 13.3414 26.3017L23.4753 20.3793C23.5691 20.3253 23.63 20.2149 23.63 20.1019V8.26224C23.63 8.1441 23.5691 8.0388 23.4733 7.97973L13.3434 2.06247C13.2495 2.00597 13.1253 2.00597 13.0314 2.06247L2.90356 7.97973C2.80539 8.03623 2.74299 8.14667 2.74299 8.25967V20.0993C2.74299 20.2123 2.80387 20.3202 2.90026 20.3741L5.67536 21.9973C7.18213 22.76 8.10294 21.8611 8.10294 20.9571V9.27156C8.10294 9.10462 8.2323 8.97621 8.39718 8.97621H9.68073C9.84054 8.97621 9.97245 9.10462 9.97245 9.27156V20.9623C9.97245 22.9963 8.87661 24.1649 6.97159 24.1649C6.38562 24.1649 5.92395 24.1649 4.63533 23.5228L1.97692 21.9716C1.65371 21.7806 1.38552 21.5073 1.19905 21.1789C1.01258 20.8504 0.914323 20.4782 0.914062 20.0993V8.25967C0.914062 7.48919 1.31993 6.77008 1.97692 6.38998L12.121 0.46502C12.7628 0.0977601 13.6151 0.0977601 14.2518 0.46502L24.3832 6.39255C24.7063 6.58289 24.9745 6.85571 25.161 7.18378C25.3475 7.51185 25.4458 7.88371 25.446 8.26224V20.1019C25.446 20.8698 25.0376 21.5863 24.3832 21.9716L14.2518 27.8965C13.927 28.0859 13.5586 28.1851 13.1838 28.1842" fill="#689F63"/>
<path d="M16.3149 20.0313C11.8809 20.0313 10.9512 17.9705 10.9512 16.2421C10.9512 16.0777 11.0821 15.9468 11.2447 15.9468H12.5536C12.6982 15.9468 12.8199 16.0533 12.8428 16.1979C13.0406 17.5483 13.6291 18.2294 16.3104 18.2294C18.4462 18.2294 19.3543 17.7409 19.3543 16.5942C19.3543 15.9342 19.0956 15.4436 15.7777 15.1149C13.0026 14.8375 11.2878 14.2186 11.2878 11.9714C11.2878 9.90134 13.0127 8.66858 15.902 8.66858C19.1463 8.66858 20.7546 9.80888 20.9575 12.259C20.9609 12.3002 20.9558 12.3416 20.9425 12.3807C20.9292 12.4198 20.9081 12.4557 20.8805 12.4861C20.8528 12.5165 20.8192 12.5408 20.7818 12.5574C20.7445 12.574 20.7041 12.5826 20.6633 12.5826H19.3467C19.2098 12.5826 19.0905 12.485 19.0626 12.3515C18.7455 10.9312 17.9795 10.4766 15.8969 10.4766C13.5657 10.4766 13.2943 11.2985 13.2943 11.9149C13.2943 12.6622 13.6139 12.8805 16.7593 13.3017C19.8744 13.7203 21.3532 14.311 21.3532 16.5274C21.3532 18.7618 19.5116 20.0434 16.3002 20.0434L16.3149 20.0313Z" fill="#689F63"/>
</svg>
