<svg width="97" height="106" viewBox="0 0 97 106" fill="none" xmlns="http://www.w3.org/2000/svg">
<path fill-rule="evenodd" clip-rule="evenodd" d="M34.0397 19.212C34.1465 23.5406 24.3398 43.9481 21.985 49.2685C20.6004 52.0244 18.7587 54.0898 18.4559 56.6984C17.2779 59.8122 19.8682 62.2775 22.9947 61.4268L40.181 48.5457C39.9463 50.1605 39.7397 49.8026 39.003 51.6595C38.5617 52.9164 38.2869 53.5523 37.825 54.7734L30.8386 67.6352C29.6849 69.7806 27.1783 71.705 30.019 74.5029C33.7069 78.7682 39.1688 71.6541 43.9072 68.4411L60.1708 57.0948C59.6614 59.3454 57.5644 62.9899 56.6381 65.529C53.8213 72.0704 52.3892 75.8559 48.6329 82.8921C46.9735 86.2839 40.2862 97.5414 41.3364 100.371C41.9051 103.478 46.8185 103.6 49.9693 101.781C54.0428 98.4273 65.919 66.0402 68.8038 58.5051C71.1792 53.2206 78.022 44.3547 76.8089 41.1419C74.9116 36.845 70.4041 39.4474 67.229 42.235L45.3079 57.3248L53.0822 40.5722C54.0292 38.0689 54.7415 37.1805 55.8745 34.9993C57.9752 30.3506 54.3311 26.06 47.982 30.7278L35.3031 41.0066C35.172 37.6464 40.268 28.7869 41.7244 24.033C42.6751 20.5255 42.5366 19.1738 43.9687 15.3884C44.6847 13.4956 45.9345 8.38377 42.5844 7.8365C39.2343 7.28923 34.9736 11.2285 31.3414 13.3256C27.2715 15.6753 23.2454 17.9997 19.8636 20.4294C15.1459 23.6782 17.2535 27.3288 21.7135 25.7559C25.0686 24.3915 30.4513 21.2838 34.0397 19.212Z" fill="#FF007A" fill-opacity="0.5"/>
</svg>
