<svg width="35" height="36" viewBox="0 0 35 36" fill="none" xmlns="http://www.w3.org/2000/svg">
<path d="M17.9219 22.8883C20.3831 22.8883 22.3784 20.8699 22.3784 18.3802C22.3784 15.8905 20.3831 13.8722 17.9219 13.8722C15.4606 13.8722 13.4653 15.8905 13.4653 18.3802C13.4653 20.8699 15.4606 22.8883 17.9219 22.8883Z" fill="#61DAFB"/>
<path d="M17.9214 24.7395C27.0144 24.7395 34.3857 21.8924 34.3857 18.3804C34.3857 14.8684 27.0144 12.0214 17.9214 12.0214C8.82837 12.0214 1.45703 14.8684 1.45703 18.3804C1.45703 21.8924 8.82837 24.7395 17.9214 24.7395Z" stroke="#61DAFB"/>
<path d="M12.4771 21.5599C17.0236 29.5256 23.1467 34.5597 26.1535 32.8037C29.1602 31.0477 27.912 23.1666 23.3655 15.2008C18.819 7.23502 12.6959 2.20099 9.68913 3.95699C6.6824 5.71299 7.93063 13.5941 12.4771 21.5599Z" stroke="#61DAFB"/>
<path d="M12.4771 15.2009C7.93064 23.1667 6.68241 31.0478 9.68914 32.8038C12.6959 34.5598 18.819 29.5257 23.3655 21.5599C27.912 13.5941 29.1602 5.71308 26.1535 3.95707C23.1468 2.20107 17.0236 7.2351 12.4771 15.2009Z" stroke="#61DAFB"/>
</svg>
