<svg width="54" height="12" viewBox="0 0 54 12" fill="none" xmlns="http://www.w3.org/2000/svg">
<path opacity="0.5" d="M49.5052 7.40173V11.5404H47.3789V7.40173" fill="#FA1607"/>
<path opacity="0.7" d="M10.9795 11.7188L16.0235 8.86884L15.4017 7.1283L12.0809 8.80175L10.9795 11.7188Z" fill="#FA1607"/>
<path opacity="0.7" d="M39.8665 4.44397V11.5404H37.708V5.65553L39.8665 4.44397Z" fill="#FA1607"/>
<path d="M1.39454 1.89246C1.39454 3.41123 2.27797 4.31491 4.04661 4.79142L5.92076 5.25275C7.59461 5.6609 8.61397 6.67468 8.61397 8.32637C8.627 9.04593 8.40662 9.74837 7.98983 10.316C7.98983 8.6681 7.18691 7.7777 5.25015 7.24233L3.40997 6.79812C1.9364 6.44117 0.799036 5.60777 0.799036 3.81371C0.791285 3.1209 1.00078 2.44501 1.39454 1.89246Z" fill="#FA1607"/>
<path opacity="0.7" d="M6.83768 7.92191C7.63702 8.46485 7.98753 9.22424 7.98753 10.314C7.32588 11.2138 6.16347 11.7189 4.79719 11.7189C2.49742 11.7189 0.887936 10.5171 0.530273 8.4288H2.73884C3.02318 9.38754 3.77606 9.83176 4.7811 9.83176C6.0079 9.83176 6.82334 9.13691 6.83945 7.91809" fill="#FA1607"/>
<path opacity="0.5" d="M37.708 5.6495L43.1802 2.62335L42.2557 0.933716L37.708 3.33528V5.6495Z" fill="#FA1607"/>
<path d="M47.3789 7.4017L50.9769 0.633667H53.2357L49.5052 7.4017H47.3789Z" fill="#FA1607"/>
<path opacity="0.7" d="M47.3789 7.4017L43.6807 0.633667H46.0073L48.5127 5.27163L47.3789 7.4017Z" fill="#FA1607"/>
<path d="M37.7078 2.62327H34.4102V0.633667H42.091L43.18 2.62327H39.8663H37.7078Z" fill="#FA1607"/>
<path d="M33.1717 0.633667H31.0293V11.5423H33.1717V0.633667Z" fill="#FA1607"/>
<path opacity="0.7" d="M27.1484 7.52514V0.633667H29.2068V11.5404H27.1484V7.52514Z" fill="#FA1607"/>
<path opacity="0.7" d="M22.2966 3.88195V11.5404H20.2383V0.633667L22.2966 3.88195Z" fill="#FA1607"/>
<path d="M22.615 0.633667L27.1483 8.08515V11.5404L20.2383 0.633667H22.615Z" fill="#FA1607"/>
<path opacity="0.5" d="M14.098 3.45859L10.9791 11.7189L9.375 10.2267L13.0912 0.633667L14.098 3.45859Z" fill="#FA1607"/>
<path d="M13.0918 0.633667H15.2181L19.1506 11.5404H16.9742L13.0918 0.633667Z" fill="#FA1607"/>
<path opacity="0.7" d="M2.54278 4.14393C2.17775 3.91363 1.87828 3.5827 1.67613 3.18628C1.474 2.78985 1.37673 2.34272 1.39468 1.89235C2.03311 1.00006 3.14365 0.4552 4.49741 0.4552C6.84009 0.4552 8.19563 1.76894 8.53003 3.61805H6.40554C6.17128 2.88904 5.58469 2.3214 4.51529 2.3214C3.37256 2.3214 2.59285 3.02763 2.54814 4.14393" fill="#FA1607"/>
</svg>
