<svg width="70" height="58" viewBox="0 0 70 58" fill="none" xmlns="http://www.w3.org/2000/svg">
<circle cx="66.3833" cy="54.5435" r="3.15967" transform="rotate(-180 66.3833 54.5435)" fill="#1FCDC3"/>
<circle cx="41.1064" cy="54.5435" r="3.15967" transform="rotate(-180 41.1064 54.5435)" fill="#1FCDC3"/>
<circle cx="15.8296" cy="54.5435" r="3.15967" transform="rotate(-180 15.8296 54.5435)" fill="#1FCDC3"/>
<circle cx="66.3833" cy="29.2666" r="3.15967" transform="rotate(-180 66.3833 29.2666)" fill="#1FCDC3"/>
<circle cx="66.3833" cy="41.9048" r="3.15967" transform="rotate(-180 66.3833 41.9048)" fill="#1FCDC3"/>
<circle cx="41.1064" cy="41.9048" r="3.15967" transform="rotate(-180 41.1064 41.9048)" fill="#1FCDC3"/>
<circle cx="15.8296" cy="41.9048" r="3.15967" transform="rotate(-180 15.8296 41.9048)" fill="#1FCDC3"/>
<circle cx="66.3833" cy="16.6279" r="3.15967" transform="rotate(-180 66.3833 16.6279)" fill="#1FCDC3"/>
<circle cx="66.3833" cy="3.98975" r="3.15967" transform="rotate(-180 66.3833 3.98975)" fill="#1FCDC3"/>
<circle cx="53.7446" cy="54.5435" r="3.15967" transform="rotate(-180 53.7446 54.5435)" fill="#1FCDC3"/>
<circle cx="28.4678" cy="54.5435" r="3.15967" transform="rotate(-180 28.4678 54.5435)" fill="#1FCDC3"/>
<circle cx="3.19092" cy="54.5435" r="3.15967" transform="rotate(-180 3.19092 54.5435)" fill="#1FCDC3"/>
<circle cx="53.7446" cy="29.2666" r="3.15967" transform="rotate(-180 53.7446 29.2666)" fill="#1FCDC3"/>
<circle cx="53.7446" cy="41.9048" r="3.15967" transform="rotate(-180 53.7446 41.9048)" fill="#1FCDC3"/>
<circle cx="28.4678" cy="41.9048" r="3.15967" transform="rotate(-180 28.4678 41.9048)" fill="#1FCDC3"/>
<circle cx="3.19092" cy="41.9048" r="3.15967" transform="rotate(-180 3.19092 41.9048)" fill="#1FCDC3"/>
<circle cx="53.7446" cy="16.6279" r="3.15967" transform="rotate(-180 53.7446 16.6279)" fill="#1FCDC3"/>
<circle cx="53.7446" cy="3.98975" r="3.15967" transform="rotate(-180 53.7446 3.98975)" fill="#1FCDC3"/>
</svg>
