<svg width="36" height="37" viewBox="0 0 36 37" fill="none" xmlns="http://www.w3.org/2000/svg">
<path d="M32.5789 18.5422C32.5789 16.9838 32.3441 15.4753 31.9184 14.0619L25.374 31.4925C29.6848 28.8749 32.5788 24.0568 32.5788 18.5422H32.5789Z" fill="#0085BA"/>
<path d="M13.292 32.802C14.7489 33.3043 16.3084 33.5741 17.9326 33.5741C19.6297 33.5741 21.2553 33.2794 22.7708 32.734L18.2997 20.8375L13.2921 32.802H13.292Z" fill="#0085BA"/>
<path d="M3.88133 14.2926C3.4945 15.6396 3.2832 17.0655 3.2832 18.542C3.2832 24.1752 6.30495 29.0837 10.7714 31.6554L3.92616 14.387L3.88133 14.2926V14.2926Z" fill="#0085BA"/>
<path d="M11.3439 13.3231L10.7147 13.2943C9.34209 13.2709 9.49409 14.7334 9.49409 14.7334L14.3642 27.2695L17.6383 19.2433L15.8105 14.4673C15.0786 13.2045 13.2926 13.2178 13.2926 13.2178V12.5525H23.5329L23.5176 13.2904L22.4522 13.3582C21.1252 13.3582 21.3935 14.6538 21.3935 14.6538L25.8372 26.8366L27.1109 23.4631C29.3704 18.206 27.9766 14.3153 27.9766 14.3153C25.714 9.53784 28.5731 8.85221 28.5731 8.85221C28.754 8.82571 28.9235 8.81093 29.0899 8.80308C26.4033 5.56296 22.4012 3.50769 17.9331 3.50769C11.8919 3.50769 6.70264 7.26495 4.46436 12.6259L11.3196 12.5534L11.3438 13.3233L11.3439 13.3231Z" fill="#0085BA"/>
<path d="M34.3855 18.4921C34.3855 27.8084 26.9991 35.39 17.924 35.39C8.8442 35.39 1.4578 27.8084 1.4578 18.4921C1.4578 9.17342 8.8442 1.595 17.924 1.595C26.9991 1.59577 34.3855 9.1735 34.3855 18.4921ZM17.924 0.816528C8.4285 0.816528 0.70166 8.74678 0.70166 18.4929C0.70166 28.239 8.42857 36.1653 17.924 36.1653C27.4179 36.1653 35.1395 28.2389 35.1395 18.4929C35.1395 8.74678 27.418 0.816528 17.924 0.816528V0.816528Z" fill="#0085BA"/>
</svg>
